<svg xmlns="http://www.w3.org/2000/svg" xmlns:xlink="http://www.w3.org/1999/xlink" viewBox="0 0 287.35 84.96"><defs><style>.cls-1{font-size:44.8px;}.cls-1,.cls-2,.cls-3,.cls-5,.cls-6,.cls-7{fill:#fff;}.cls-1,.cls-2,.cls-3,.cls-5,.cls-6{font-family:BebasNeueBold, Bebas Neue;font-weight:700;}.cls-2{font-size:11.28px;}.cls-3{font-size:24.42px;}.cls-4{fill:url(#radial-gradient);}.cls-5{font-size:28.98px;letter-spacing:0.02em;}.cls-6{font-size:24.92px;letter-spacing:0.02em;}.cls-8{fill:#999;}</style><radialGradient id="radial-gradient" cx="44.6" cy="45.35" r="36.02" gradientUnits="userSpaceOnUse"><stop offset="0" stop-color="#cf0015"/><stop offset="1" stop-color="#b20015"/></radialGradient></defs><title>Asset 20</title><g id="Layer_2" data-name="Layer 2"><g id="Layer_1-2" data-name="Layer 1"><text class="cls-1" transform="translate(122.09 38.58)">EXPERIENCE<tspan x="0" y="38.36">CENTER</tspan></text><text class="cls-2" transform="translate(26.61 77.77)">NASIONAL</text><text class="cls-3" transform="translate(25.65 20.76)">HARI</text><rect class="cls-4" y="20.75" width="89.21" height="49.21"/><text class="cls-5" transform="translate(4.1 45.15) scale(1.01 1)">BELANJA</text><text class="cls-6" transform="translate(28.19 64.51) scale(1.01 1)">ONLINE</text><rect class="cls-7" x="12.44" y="50.79" width="14.85" height="1.77" rx="0.88" ry="0.88"/><rect class="cls-7" x="13.47" y="53.78" width="12.96" height="1.77" rx="0.88" ry="0.88"/><rect class="cls-7" x="14.27" y="56.82" width="11.35" height="1.77" rx="0.88" ry="0.88"/><path class="cls-7" d="M23.58,59.74H14L10.12,47.58a.88.88,0,0,0-.31-.44.88.88,0,0,0-.66-.3h-3a.88.88,0,0,0,0,1.77H8.57l3.89,12.17a1.1,1.1,0,0,0,.9.74H23.58a.88.88,0,1,0,0-1.77Z"/><circle class="cls-7" cx="14.52" cy="63.65" r="1.2"/><circle class="cls-7" cx="22.06" cy="63.65" r="1.2"/><rect class="cls-8" x="105.63" y="3.26" width="1.16" height="76.56"/></g></g></svg>